HIERARCHY
ROOT Hips
{
	OFFSET 0.00000 0.00000 0.00000
	CHANNELS 6 Xposition Yposition Zposition Zrotation Yrotation Xrotation 
	JOINT LHipJoint
	{
		OFFSET 0 0 0
		CHANNELS 3 Zrotation Yrotation Xrotation
		JOINT LeftHip
		{
			OFFSET 1.58895 -1.83665 0.71753
			CHANNELS 3 Zrotation Yrotation Xrotation
			JOINT LeftKnee
			{
				OFFSET 2.50528 -6.88321 0.00000
				CHANNELS 3 Zrotation Yrotation Xrotation
				JOINT LeftAnkle
				{
					OFFSET 2.63244 -7.23257 0.00000
					CHANNELS 3 Zrotation Yrotation Xrotation
					JOINT LeftToe
					{
						OFFSET 0.23691 -0.65090 1.72750
						CHANNELS 3 Zrotation Yrotation Xrotation
						End Site
						{
							OFFSET 0.00000 -0.00000 0.92561
						}
					}
				}
			}
		}
	}
	JOINT RHipJoint
	{
		OFFSET 0 0 0
		CHANNELS 3 Zrotation Yrotation Xrotation
		JOINT RightHip
		{
			OFFSET -1.51435 -1.83665 0.71753
			CHANNELS 3 Zrotation Yrotation Xrotation
			JOINT RightKnee
			{
				OFFSET -2.54551 -6.99375 0.00000
				CHANNELS 3 Zrotation Yrotation Xrotation
				JOINT RightAnkle
				{
					OFFSET -2.66027 -7.30903 0.00000
					CHANNELS 3 Zrotation Yrotation Xrotation
					JOINT RightToe
					{
						OFFSET -0.22981 -0.63138 2.03959
						CHANNELS 3 Zrotation Yrotation Xrotation
						End Site
						{
							OFFSET -0.00000 -0.00000 1.07060
						}
					}
				}
			}
		}
	}
	JOINT lowerback
	{
		OFFSET 0 0 0
		CHANNELS 3 Zrotation Yrotation Xrotation
		JOINT Chest
		{
			OFFSET -0.02651 1.86275 -0.11152
			CHANNELS 3 Zrotation Yrotation Xrotation
			JOINT Chest2
			{
				OFFSET 0.01019 1.86224 0.04087
				CHANNELS 3 Zrotation Yrotation Xrotation
				JOINT lowerneck
				{
					OFFSET 0 0 0
					CHANNELS 3 Zrotation Yrotation Xrotation
					JOINT Neck
					{
						OFFSET -0.01926 1.80512 0.08867
						CHANNELS 3 Zrotation Yrotation Xrotation
						JOINT Head
						{
							OFFSET 0.05516 1.76451 -0.38475
							CHANNELS 3 Zrotation Yrotation Xrotation
							End Site
							{
								OFFSET 0.01592 1.82587 -0.14001
							}
						}
					}
				}
				JOINT LeftCollar
				{
					OFFSET 0 0 0
					CHANNELS 3 Zrotation Yrotation Xrotation
					JOINT LeftShoulder
					{
						OFFSET 3.47116 1.51376 0.14491
CHANNELS 3 Zrotation Xrotation Yrotation
						JOINT LeftElbow
						{
OFFSET 0 -4.780950 0.000000
CHANNELS 3 Zrotation Xrotation Yrotation
							JOINT LeftWrist
							{
OFFSET 0 -3.586150 -0.000000
CHANNELS 3 Zrotation Xrotation Yrotation
								JOINT lhand
								{
									OFFSET 0 0 0
CHANNELS 3 Zrotation Xrotation Yrotation
									JOINT LFingers
									{
OFFSET 0 -0.659810 0.000000
CHANNELS 3 Zrotation Xrotation Yrotation
										End Site
										{
OFFSET 0 -0.531960 0.000000
										}
									}
								}
								JOINT LThumb
								{
OFFSET 0 0.000000 0.000000
CHANNELS 3 Zrotation Xrotation Yrotation
									End Site
									{
OFFSET 0 -0.540080 0.540080
									}
								}
							}
						}
					}
				}
				JOINT RightCollar
				{
					OFFSET 0 0 0
					CHANNELS 3 Zrotation Yrotation Xrotation
					JOINT RightShoulder
					{
						OFFSET -3.31725 1.61216 0.35156
CHANNELS 3 Zrotation Xrotation Yrotation
						JOINT RightElbow
						{
OFFSET 0 -4.489130 0.000000
CHANNELS 3 Zrotation Xrotation Yrotation
							JOINT RightWrist
							{
OFFSET 0 -3.705100 0.000000
CHANNELS 3 Zrotation Xrotation Yrotation
								JOINT rhand
								{
									OFFSET 0 0 0
CHANNELS 3 Zrotation Xrotation Yrotation
									JOINT RFingers
									{
OFFSET 0 -0.449140 0.000000
CHANNELS 3 Zrotation Xrotation Yrotation
										End Site
										{
OFFSET 0 -0.362110 0.000000
										}
									}
								}
								JOINT RThumb
								{
OFFSET 0 0.000000 0.000000
CHANNELS 3 Zrotation Xrotation Yrotation
									End Site
									{
OFFSET 0 -0.367630 0.367630
									}
								}
							}
						}
					}
				}
			}
		}
	}
}
MOTION
Frames: 11
Frame Time: 0.008333333333333333
-0.753801 17.851482 7.038650 -6.358474 -0.351598 -8.808381 0.000000 0.000000 0.000000 -6.019746 13.952510 35.174111 2.887719 -10.510348 -30.646385 -0.335458 14.413710 5.605900 1.011042 -6.397460 -17.942253 0.000000 0.000000 0.000000 17.672613 -10.397922 33.485580 -1.458448 7.632821 -21.604233 0.998478 -17.501324 -8.981622 -0.077775 1.796974 -4.944993 0.710089 1.027663 9.023393 0.374571 1.484452 -2.235729 -0.232098 0.703126 -7.416911 -1.464188 -3.904335 -34.343835 1.693942 -4.802949 10.357574 0.050901 -2.087979 8.616108 0.000000 0.000000 0.000000 46.041891 4.012683 12.825800 145.266393 -44.561884 105.354219 69.397428 -53.011152 48.462704 0.000000 0.000000 0.000000 -7.125000 0.000000 0.000000 10.822575 -41.933974 15.389856 0.000000 0.000000 0.000000 -39.402993 18.451580 -14.123143 -152.649088 -38.479024 -110.270452 -69.916585 65.699182 27.991231 0.000000 0.000000 0.000000 7.125000 0.000000 0.000000 -86.250798 70.326246 65.123925
-0.779548 17.707676 7.039345 -6.432114 -0.112476 -10.870694 0.000000 0.000000 0.000000 -5.114485 14.767166 38.269458 3.200326 -11.010992 -32.318668 -0.346161 14.679113 5.740986 1.199921 -6.949920 -19.567288 0.000000 0.000000 0.000000 17.356250 -11.234787 36.274814 -1.554221 7.867695 -22.313184 0.914040 -16.943135 -9.776935 -0.128604 2.300932 -6.338582 0.755022 1.059636 9.124679 0.249676 1.523749 -2.105772 -0.395936 0.717622 -7.331150 -1.886936 -3.992290 -30.828224 2.378221 -5.044874 12.669732 0.332202 -2.153864 8.976011 0.000000 0.000000 0.000000 54.796139 -5.019166 14.710619 135.098356 -50.619686 97.808754 68.726987 -54.356664 48.551945 0.000000 0.000000 0.000000 -7.125000 0.000000 0.000000 10.496689 -41.525230 14.915943 0.000000 0.000000 0.000000 -48.857190 9.791664 -15.945060 -145.114069 -44.644011 -105.238237 -69.167445 65.285869 28.416960 0.000000 0.000000 0.000000 7.125000 0.000000 0.000000 -84.669786 70.740452 64.023465
-0.813917 17.533170 7.077503 -6.600811 0.967205 -11.724786 0.000000 0.000000 0.000000 -4.149191 15.881389 40.054304 3.608034 -11.618403 -34.396845 -0.325279 14.259991 5.593562 0.711428 -5.389056 -15.021914 0.000000 0.000000 0.000000 17.218535 -12.799571 37.938810 -1.716553 8.248078 -23.470562 0.795169 -16.172336 -10.798695 -0.257744 3.262153 -9.009815 -0.237767 0.589385 7.657610 0.502923 0.797730 -2.428845 0.551736 0.413307 -6.854944 -1.738984 -3.622823 -27.248711 2.631496 -4.821645 14.920275 0.456773 -2.030579 9.211701 0.000000 0.000000 0.000000 62.476206 -14.864643 18.391137 119.526508 -56.337017 85.244302 66.522782 -53.422073 48.013554 0.000000 0.000000 0.000000 -7.125000 0.000000 0.000000 9.990644 -39.631690 14.159020 0.000000 0.000000 0.000000 -57.147237 -1.290737 -18.786925 -133.007330 -51.621101 -96.183498 -69.260593 66.950457 29.605283 0.000000 0.000000 0.000000 7.125000 0.000000 0.000000 -88.330320 71.395019 68.576886
-0.803991 17.375910 7.115464 -6.408617 1.502840 -11.034133 0.000000 0.000000 0.000000 -4.319139 16.631584 40.316828 4.052927 -12.229625 -36.550520 -0.322476 13.844753 5.158263 0.819665 -5.772932 -16.128028 0.000000 0.000000 0.000000 16.651298 -14.060095 37.972343 -1.960810 8.782858 -25.119133 0.680018 -15.319668 -11.244229 -0.317662 3.622902 -10.018104 -0.464493 0.308481 5.462213 0.380423 0.398091 -3.629938 0.612799 0.228146 -6.860956 -1.993768 -3.394071 -24.028120 2.736312 -4.574721 16.727183 0.599353 -1.940282 9.315430 0.000000 0.000000 0.000000 66.680966 -23.909215 22.144149 102.315089 -59.406394 70.643203 62.768312 -48.135411 47.685520 0.000000 0.000000 0.000000 -7.125000 0.000000 0.000000 8.699841 -36.889677 12.248014 0.000000 0.000000 0.000000 -61.692700 -10.005629 -21.940116 -120.579233 -56.146279 -86.138813 -68.905779 67.869603 29.941451 0.000000 0.000000 0.000000 7.125000 0.000000 0.000000 -87.975290 71.676266 68.547773
-0.814438 17.220466 7.165367 -6.428605 2.442281 -10.086184 0.000000 0.000000 0.000000 -4.183546 16.540302 40.595678 4.572237 -12.884874 -38.939692 -0.248226 13.250333 5.741014 1.072887 -6.584377 -18.489726 0.000000 0.000000 0.000000 16.687102 -14.911165 38.369858 -2.339222 9.538857 -27.496520 0.667664 -15.461764 -12.080892 -0.332383 3.705014 -10.248110 -0.967391 -0.239175 4.022804 0.717282 -0.344935 -4.621086 1.327277 -0.097681 -7.068266 -2.294220 -3.125220 -24.700319 1.879660 -3.928682 18.131590 0.430948 -1.748196 9.898109 0.000000 0.000000 0.000000 66.886986 -26.113700 23.740805 95.510203 -59.884939 64.770169 62.647509 -47.994308 47.444128 0.000000 0.000000 0.000000 -7.125000 0.000000 0.000000 8.797491 -36.621677 12.379452 0.000000 0.000000 0.000000 -65.093461 -12.008917 -24.721404 -117.249311 -56.999471 -83.360880 -67.920344 64.677314 29.010334 0.000000 0.000000 0.000000 7.125000 0.000000 0.000000 -81.700385 71.371439 61.787290
-0.814360 17.094920 7.178262 -6.351496 2.911483 -9.806961 0.000000 0.000000 0.000000 -3.968738 16.905252 41.443259 5.114675 -13.511477 -41.315186 -0.157365 13.464391 7.351599 1.004706 -6.378150 -17.885563 0.000000 0.000000 0.000000 16.389700 -15.413157 39.753420 -2.838239 10.427685 -30.373817 0.854310 -16.734142 -11.155939 -0.455204 4.327137 -11.998966 -0.989718 -0.635967 4.274096 0.759538 -0.877135 -5.427353 1.451640 -0.343370 -8.064167 -2.564434 -2.909164 -26.758070 1.769496 -3.459169 18.733652 0.486045 -1.545552 10.465727 0.000000 0.000000 0.000000 66.463885 -25.406072 23.522622 95.070174 -59.902652 64.389406 64.593372 -49.107128 47.928858 0.000000 0.000000 0.000000 -7.125000 0.000000 0.000000 9.278462 -38.268879 13.109403 0.000000 0.000000 0.000000 -67.462999 -11.938028 -25.995437 -116.625740 -57.143937 -82.837529 -67.989980 65.609847 28.972504 0.000000 0.000000 0.000000 7.125000 0.000000 0.000000 -81.852245 71.334782 61.894224
-0.808480 17.011546 7.184085 -6.191594 2.616447 -10.542341 0.000000 0.000000 0.000000 -3.583981 17.718217 43.036360 5.448724 -13.871809 -42.726756 -0.114355 13.620353 8.088594 1.019306 -6.422942 -18.016766 0.000000 0.000000 0.000000 15.551237 -16.226004 41.842024 -3.311778 11.182267 -32.898377 1.057090 -17.987840 -9.239313 -0.613818 5.013576 -13.947549 -0.871844 -0.667840 4.475849 0.579713 -0.924829 -5.387985 1.204443 -0.379496 -8.142740 -2.336291 -2.821855 -28.481291 1.722952 -3.367035 18.708211 0.432063 -1.478012 10.745764 0.000000 0.000000 0.000000 68.063191 -24.600670 23.218764 92.503670 -59.974383 62.168022 64.184878 -48.495870 47.284462 0.000000 0.000000 0.000000 -7.125000 0.000000 0.000000 9.515596 -37.502819 13.428668 0.000000 0.000000 0.000000 -69.372726 -11.929982 -27.217202 -114.039284 -57.697524 -80.657441 -68.001571 64.729550 29.146667 0.000000 0.000000 0.000000 7.125000 0.000000 0.000000 -82.378590 71.441647 62.549396
-0.818730 16.960179 7.197061 -5.814225 2.246381 -11.410273 0.000000 0.000000 0.000000 -3.459327 18.284245 44.381871 5.552525 -13.980188 -43.158252 -0.114185 13.596175 8.071325 1.017366 -6.417018 -17.999218 0.000000 0.000000 0.000000 14.697023 -16.630685 43.655906 -3.593386 11.598404 -34.326100 1.143786 -18.569539 -8.425298 -0.642000 5.125857 -14.267916 -1.532302 -0.584534 4.475961 0.536555 -0.870789 -5.253321 1.521789 -0.317754 -7.991260 -2.261841 -2.851739 -29.536081 1.700159 -3.401076 18.617631 0.396839 -1.482240 10.890552 0.000000 0.000000 0.000000 69.800949 -24.527960 23.108937 89.363519 -59.997244 59.448791 63.640575 -48.687360 47.043831 0.000000 0.000000 0.000000 -7.125000 0.000000 0.000000 9.442103 -36.954142 13.308210 0.000000 0.000000 0.000000 -70.639565 -12.631051 -28.507842 -110.886503 -58.284011 -77.983866 -68.133160 64.397400 29.210862 0.000000 0.000000 0.000000 7.125000 0.000000 0.000000 -83.044171 71.454947 63.232874
-0.799434 16.932894 7.187384 -5.590313 1.729473 -11.762464 0.000000 0.000000 0.000000 -3.585698 18.702318 44.918108 5.582378 -14.011069 -43.281801 -0.128495 13.693626 7.957950 1.059339 -6.543928 -18.371029 0.000000 0.000000 0.000000 14.261182 -16.434700 44.356585 -3.701751 11.752500 -34.862006 1.150156 -18.601154 -8.121657 -0.632725 5.089443 -14.163881 -1.561428 -0.405341 4.509290 0.470583 -0.639148 -5.382923 1.444028 -0.202195 -8.159844 -2.296863 -2.949390 -30.378557 1.666772 -3.489714 18.710754 0.366483 -1.521927 11.069633 0.000000 0.000000 0.000000 70.280305 -25.347775 23.362431 87.636522 -59.978255 57.953340 64.016399 -49.164994 47.282340 0.000000 0.000000 0.000000 -7.125000 0.000000 0.000000 9.449246 -37.389948 13.330889 0.000000 0.000000 0.000000 -71.087301 -13.078135 -29.584218 -109.388699 -58.530505 -76.708206 -67.929175 63.484331 29.092148 0.000000 0.000000 0.000000 7.125000 0.000000 0.000000 -81.959937 71.421242 62.106597
-0.772935 16.923223 7.178243 -5.607922 1.356097 -11.887045 0.000000 0.000000 0.000000 -3.601627 18.976027 45.088503 5.581354 -14.009947 -43.277329 -0.140123 13.584919 7.703505 1.124255 -6.734555 -18.931459 0.000000 0.000000 0.000000 14.235407 -16.139806 44.561326 -3.719505 11.777478 -34.949320 1.141625 -18.543883 -8.256277 -0.565741 4.817053 -13.387565 -1.371653 -0.276973 4.352856 0.541480 -0.444751 -5.542226 1.390084 -0.113947 -8.248370 -2.503646 -3.024191 -31.017443 1.598489 -3.466482 18.824552 0.371911 -1.530993 11.222075 0.000000 0.000000 0.000000 70.669330 -26.339515 23.729892 85.952872 -59.937255 56.495837 64.314298 -49.653831 47.331998 0.000000 0.000000 0.000000 -7.125000 0.000000 0.000000 9.539387 -37.626264 13.466157 0.000000 0.000000 0.000000 -71.912489 -13.313409 -30.299599 -108.071277 -58.728396 -75.583233 -67.759295 62.878691 29.119005 0.000000 0.000000 0.000000 7.125000 0.000000 0.000000 -81.408478 71.469084 61.615699
-0.763003 16.913183 7.173313 -5.702775 1.349683 -12.112999 0.000000 0.000000 0.000000 -3.471187 18.972484 45.312567 5.547907 -13.975449 -43.139180 -0.148726 13.394372 7.415700 1.193652 -6.932547 -19.515702 0.000000 0.000000 0.000000 14.358271 -16.044072 44.796516 -3.695331 11.743578 -34.830702 1.124669 -18.441099 -8.639485 -0.526747 4.650732 -12.915008 -1.514421 -0.305759 4.102164 0.684771 -0.480981 -5.518402 1.622351 -0.119972 -8.072382 -2.679418 -3.036707 -31.789016 1.589064 -3.380775 19.010084 0.404414 -1.500461 11.423534 0.000000 0.000000 0.000000 71.659028 -27.099993 24.334471 84.064484 -59.865487 54.862019 63.906721 -49.623019 47.358851 0.000000 0.000000 0.000000 -7.125000 0.000000 0.000000 9.358016 -37.376769 13.200169 0.000000 0.000000 0.000000 -73.113414 -13.669967 -30.929257 -106.242003 -58.978326 -74.017674 -67.663329 62.332556 29.277247 0.000000 0.000000 0.000000 7.125000 0.000000 0.000000 -81.494739 71.586034 61.843988
